<svg width="25" height="25" viewBox="0 0 25 25" fill="none" xmlns="http://www.w3.org/2000/svg">
<path d="M13.4261 3.13407C13.0929 3.03164 12.7365 3.03164 12.4033 3.13407L9.41752 4.05174C7.88317 4.52333 6.42599 5.21666 5.09221 6.10977C4.24437 6.67748 4.64625 7.99997 5.66661 7.99997H20.1628C21.1831 7.99997 21.585 6.67748 20.7372 6.10977C19.4034 5.21666 17.9462 4.52333 16.4119 4.05174L13.4261 3.13407Z" fill="#6717CE"/>
<path d="M5.16467 21.5C5.16467 21.0858 5.50046 20.75 5.91467 20.75H19.9147C20.3289 20.75 20.6647 21.0858 20.6647 21.5C20.6647 21.9142 20.3289 22.25 19.9147 22.25H5.91467C5.50046 22.25 5.16467 21.9142 5.16467 21.5Z" fill="#6717CE"/>
<path d="M7.16467 17.5C7.16467 17.9142 7.50046 18.25 7.91467 18.25C8.32889 18.25 8.66467 17.9142 8.66467 17.5L8.66467 11.5C8.66467 11.0858 8.32889 10.75 7.91467 10.75C7.50046 10.75 7.16467 11.0858 7.16467 11.5L7.16467 17.5Z" fill="#6717CE"/>
<path d="M12.9147 18.25C12.5005 18.25 12.1647 17.9142 12.1647 17.5L12.1647 11.5C12.1647 11.0858 12.5005 10.75 12.9147 10.75C13.3289 10.75 13.6647 11.0858 13.6647 11.5V17.5C13.6647 17.9142 13.3289 18.25 12.9147 18.25Z" fill="#6717CE"/>
<path d="M17.1647 17.5C17.1647 17.9142 17.5005 18.25 17.9147 18.25C18.3289 18.25 18.6647 17.9142 18.6647 17.5V11.5C18.6647 11.0858 18.3289 10.75 17.9147 10.75C17.5005 10.75 17.1647 11.0858 17.1647 11.5V17.5Z" fill="#6717CE"/>
</svg>
