<svg width="69" height="69" viewBox="0 0 69 69" fill="none" xmlns="http://www.w3.org/2000/svg">
<rect width="69" height="69" fill="#787878"/>
<rect width="1728" height="1117" transform="translate(-56 -1000)" fill="#F9F9F9"/>
<rect x="-55.5" y="-999.5" width="350.829" height="1116" fill="white" stroke="#DFE8F9"/>
<path d="M0 14.7857C0 6.61979 6.61979 0 14.7857 0H54.2143C62.3802 0 69 6.61979 69 14.7857V54.2143C69 62.3802 62.3802 69 54.2143 69H14.7857C6.61979 69 0 62.3802 0 54.2143V14.7857Z" fill="#EDEDED" fill-opacity="0.2"/>
<path d="M46.7753 26.8696C45.8667 27.269 44.8963 27.5411 43.8747 27.6654C44.9159 27.038 45.7166 26.0492 46.0956 24.8694C45.1192 25.4393 44.0369 25.8541 42.8849 26.0851C41.9649 25.1004 40.6536 24.4844 39.1976 24.4844C36.4078 24.4844 34.1458 26.7464 34.1458 29.5331C34.1458 29.9335 34.1921 30.3186 34.2762 30.6872C30.0767 30.489 26.3546 28.4724 23.8636 25.4239C23.4252 26.1652 23.1798 27.0267 23.1798 27.9652C23.1798 29.721 24.0731 31.2642 25.4264 32.1709C24.5978 32.1442 23.8184 31.9163 23.1387 31.5384V31.601C23.1387 34.0499 24.8771 36.0922 27.1904 36.5573C26.7663 36.6713 26.3187 36.7329 25.8597 36.7329C25.5373 36.7329 25.2282 36.7021 24.9192 36.6446C25.5671 38.6499 27.4296 40.112 29.6465 40.1531C27.9215 41.5075 25.7354 42.3146 23.381 42.3146C22.9806 42.3146 22.5812 42.2909 22.1797 42.2457C24.4273 43.677 27.0754 44.5139 29.9391 44.5139C39.2357 44.5139 44.3131 36.8171 44.3131 30.1533C44.3131 29.9387 44.3131 29.722 44.2977 29.5064C45.2844 28.7989 46.1458 27.9046 46.8235 26.8901L46.7753 26.8696Z" fill="#515151"/>
</svg>
