<svg width="25" height="25" viewBox="0 0 25 25" fill="none" xmlns="http://www.w3.org/2000/svg">
<path fill-rule="evenodd" clip-rule="evenodd" d="M14.4724 6.03423C13.6019 5.19887 12.2274 5.19887 11.3568 6.03423L6.73035 10.4736C6.617 10.5823 6.54075 10.724 6.51242 10.8785C5.95828 13.9004 5.91738 16.994 6.39142 20.0295L6.50394 20.75H9.4804V14.5387C9.4804 14.1244 9.81619 13.7887 10.2304 13.7887H15.5988C16.013 13.7887 16.3488 14.1244 16.3488 14.5387V20.75H19.3253L19.4378 20.0295C19.9118 16.994 19.8709 13.9004 19.3168 10.8785C19.2885 10.724 19.2122 10.5823 19.0989 10.4736L14.4724 6.03423ZM10.3182 4.95191C11.7692 3.55965 14.06 3.55965 15.511 4.95191L20.1374 9.39125C20.478 9.71804 20.7071 10.1437 20.7922 10.608C21.3767 13.7956 21.4199 17.059 20.9198 20.2609L20.7391 21.4184C20.6643 21.8971 20.252 22.25 19.7675 22.25H15.5988C15.1846 22.25 14.8488 21.9142 14.8488 21.5V15.2887H10.9804V21.5C10.9804 21.9142 10.6446 22.25 10.2304 22.25H6.06168C5.57719 22.25 5.16491 21.8971 5.09015 21.4184L4.90939 20.2609C4.40934 17.059 4.45249 13.7956 5.03702 10.608C5.12215 10.1437 5.35123 9.71804 5.6918 9.39125L10.3182 4.95191Z" fill="#657795"/>
</svg>
