<svg width="69" height="69" viewBox="0 0 69 69" fill="none" xmlns="http://www.w3.org/2000/svg">
<path d="M0 14.7857C0 6.61979 6.61979 0 14.7857 0H54.2143C62.3802 0 69 6.61979 69 14.7857V54.2143C69 62.3802 62.3802 69 54.2143 69H14.7857C6.61979 69 0 62.3802 0 54.2143V14.7857Z" fill="#EDEDED" fill-opacity="0.2"/>
<g clip-path="url(#clip0_3_351)">
<path d="M46.7457 26.7749L43.2231 44.1229C42.9791 45.354 42.2668 45.6491 41.2716 45.0794L35.9046 40.9382L33.309 43.5531C33.0163 43.8584 32.7724 44.1229 32.2357 44.1229C31.5331 44.1229 31.6502 43.8483 31.416 43.1563L29.562 36.8581L24.2439 35.1284C23.0925 34.7723 23.0828 33.9481 24.4977 33.3478L45.243 25.0045C46.1894 24.567 47.097 25.2487 46.7359 26.7647L46.7457 26.7749Z" fill="#515151"/>
</g>
<defs>
<clipPath id="clip0_3_351">
<rect width="23.4107" height="23.4107" fill="white" transform="translate(23.4062 23.4111)"/>
</clipPath>
</defs>
</svg>
