<svg width="69" height="69" viewBox="0 0 69 69" fill="none" xmlns="http://www.w3.org/2000/svg">
<path d="M0 14.7857C0 6.61979 6.61979 0 14.7857 0H54.2143C62.3802 0 69 6.61979 69 14.7857V54.2143C69 62.3802 62.3802 69 54.2143 69H14.7857C6.61979 69 0 62.3802 0 54.2143V14.7857Z" fill="#EDEDED" fill-opacity="0.2"/>
<g clip-path="url(#clip0_3_350)">
<path fill-rule="evenodd" clip-rule="evenodd" d="M37.9931 25.6056H38.0092L38.0075 25.6006L37.9931 25.6056ZM37.9385 25.6247L37.9931 25.6056H37.9582L37.9385 25.6247ZM37.9291 25.6339L37.9385 25.6247L37.9124 25.6339L37.9291 25.6339ZM37.9291 25.6339L37.6154 25.9384C41.1336 26.9367 42.8359 28.4958 42.8359 28.4958C40.5685 27.3843 38.5252 26.8285 36.4817 26.6039C35.0052 26.3793 33.5286 26.4974 32.2812 26.6039H31.9418C31.1441 26.6039 29.4469 26.9367 27.1728 27.8269C26.3802 28.1646 25.9253 28.3859 25.9253 28.3859C25.9253 28.3859 27.6259 26.7187 31.3732 25.8285L31.1441 25.6039C31.1441 25.6039 28.3065 25.4974 25.2431 27.7171C25.2431 27.7171 22.1797 32.9483 22.1797 39.3976C22.1797 39.3976 23.8769 42.2927 28.5322 42.4025C28.5322 42.4025 29.211 41.5156 29.8984 40.7353C27.2848 39.9566 26.2665 38.3992 26.2665 38.3992C26.2665 38.3992 26.4939 38.509 26.835 38.732H26.9368C26.9848 38.732 27.0086 38.7541 27.0339 38.7775C27.0355 38.779 27.0371 38.7804 27.0387 38.7819V38.7919C27.0658 38.8185 27.0896 38.8418 27.1405 38.8418C27.1899 38.8618 27.2392 38.8817 27.2885 38.9015C27.7985 39.1073 28.301 39.3101 28.7189 39.5074C29.5097 39.8435 30.5263 40.1779 31.7738 40.3992C33.3521 40.6238 35.1613 40.732 37.2217 40.3992L37.2875 40.3847C38.2839 40.1651 39.2802 39.9453 40.2766 39.509C40.4587 39.4174 40.6524 39.326 40.8561 39.2296C41.3928 38.9759 41.9993 38.6892 42.6475 38.2827C42.6475 38.2827 41.6292 39.8402 38.9052 40.6189C39.4653 41.3942 40.2545 42.2827 40.2545 42.2827C44.0705 42.201 45.9743 40.2423 46.5936 39.6053C46.7301 39.4648 46.8042 39.3887 46.8225 39.4109C46.8225 32.9716 43.7422 27.7304 43.7422 27.7304C40.9992 25.7336 38.4304 25.6359 37.9291 25.6339ZM30.5841 32.9483C31.7721 32.9483 32.7327 33.9466 32.7327 35.1696C32.7327 36.4009 31.7653 37.3992 30.5773 37.3992C29.3893 37.3992 28.4219 36.4009 28.4219 35.1796C28.4219 33.9483 29.3893 32.9533 30.5773 32.9533L30.5841 32.9483ZM38.2943 32.9483C39.4875 32.9483 40.4498 33.9466 40.4498 35.1696C40.4498 36.4009 39.4823 37.3992 38.2943 37.3992C37.1063 37.3992 36.1389 36.4009 36.1389 35.1796C36.1423 33.9483 37.1113 32.9533 38.2943 32.9533V32.9483Z" fill="#515151"/>
</g>
<defs>
<clipPath id="clip0_3_350">
<rect width="24.6429" height="24.6429" fill="white" transform="translate(22.1797 22.1787)"/>
</clipPath>
</defs>
</svg>
